<?xml version="1.0" encoding="utf-8"?>
<!-- Generator: Adobe Illustrator 18.0.0, SVG Export Plug-In . SVG Version: 6.00 Build 0)  -->
<!DOCTYPE svg PUBLIC "-//W3C//DTD SVG 1.1//EN" "http://www.w3.org/Graphics/SVG/1.1/DTD/svg11.dtd">
<svg version="1.1" id="Capa_1" xmlns="http://www.w3.org/2000/svg" xmlns:xlink="http://www.w3.org/1999/xlink" x="0px" y="0px"
	 viewBox="0 0 500 503" enable-background="new 0 0 500 503" xml:space="preserve">
<polyline fill="none" stroke="#EDEDED" stroke-width="3.5708" stroke-miterlimit="10" points="68.5,358.9 68.5,352.7 159,352.7 
	190.9,317.3 190.9,307.6 254.5,241.4 315.7,221.6 391,221.6 415.8,195.9 362.9,149.7 357.4,144.2 351.8,112.2 351.8,98.6 
	344.8,54.2 347.7,32.6 "/>
<polyline fill="none" stroke="#EDEDED" stroke-width="3.5708" stroke-miterlimit="10" points="361.4,221.6 361.4,180.9 370.5,170 
	379.7,162.8 408.8,130.5 359.5,84.1 356.1,56.9 361.1,35 301.9,24.6 262.8,30.2 243.1,44 197.9,61 79.6,145.2 40.9,161 38.1,275 
	36.6,464.2 "/>
<polyline fill="none" stroke="#EDEDED" stroke-width="3.5708" stroke-miterlimit="10" points="322.4,222.2 321.1,173.1 307.4,78.1 
	300.8,24.6 "/>
<polyline fill="none" stroke="#EDEDED" stroke-width="3.5708" stroke-miterlimit="10" points="415.8,195.9 484,120.9 404.4,47.4 
	393.4,42.6 361.1,35 "/>
<polyline fill="none" stroke="#EDEDED" stroke-width="3.5708" stroke-miterlimit="10" points="445.9,162.8 408.8,130.5 432.2,103.3 
	447.9,87.6 "/>
<polyline fill="none" stroke="#EDEDED" stroke-width="2.0404" stroke-miterlimit="10" points="243.1,44 256.6,75.4 272,190 
	278.5,216.1 281.1,231.8 "/>
<line fill="none" stroke="#EDEDED" stroke-width="2.0404" stroke-miterlimit="10" x1="271.5" y1="29.9" x2="276" y2="51.4"/>
<polyline fill="none" stroke="#EDEDED" stroke-width="2.0404" stroke-miterlimit="10" points="304.4,48.8 295.6,48.1 266.6,53.7 
	271.1,87.5 308.9,82.9 "/>
<line fill="none" stroke="#EDEDED" stroke-width="2.0404" stroke-miterlimit="10" x1="291.8" y1="25.7" x2="298.9" y2="70.6"/>
<line fill="none" stroke="#EDEDED" stroke-width="2.0404" stroke-miterlimit="10" x1="285.5" y1="26.6" x2="294.4" y2="76.9"/>
<line fill="none" stroke="#EDEDED" stroke-width="2.0404" stroke-miterlimit="10" x1="281.8" y1="27" x2="284.7" y2="50.2"/>
<line fill="none" stroke="#EDEDED" stroke-width="2.0404" stroke-miterlimit="10" x1="275.1" y1="27.7" x2="279.3" y2="51.6"/>
<line fill="none" stroke="#EDEDED" stroke-width="2.0404" stroke-miterlimit="10" x1="273.5" y1="39.6" x2="302" y2="36.8"/>
<polyline fill="none" stroke="#EDEDED" stroke-width="2.0404" stroke-miterlimit="10" points="256.6,75.4 296.9,71.1 307.3,71.1 
	324.2,68 "/>
<polyline fill="none" stroke="#EDEDED" stroke-width="2.0404" stroke-miterlimit="10" points="281.8,72.8 280,62.1 305.3,59.8 
	323.1,55.9 "/>
<line fill="none" stroke="#EDEDED" stroke-width="2.0404" stroke-miterlimit="10" x1="270.8" y1="80.3" x2="307" y2="75.8"/>
<line fill="none" stroke="#EDEDED" stroke-width="2.0404" stroke-miterlimit="10" x1="289.7" y1="78.5" x2="291.4" y2="91.7"/>
<polyline fill="none" stroke="#EDEDED" stroke-width="2.0404" stroke-miterlimit="10" points="258.9,95.3 271.4,95 308.8,89.5 "/>
<polyline fill="none" stroke="#EDEDED" stroke-width="2.0404" stroke-miterlimit="10" points="272.2,95.9 279.4,148.5 280.9,171.2 
	283.6,174.9 "/>
<line fill="none" stroke="#EDEDED" stroke-width="2.0404" stroke-miterlimit="10" x1="272.5" y1="192.7" x2="321.6" y2="193.9"/>
<polyline fill="none" stroke="#EDEDED" stroke-width="2.0404" stroke-miterlimit="10" points="270.8,179.4 272.6,176.7 279.7,177.2 
	283.4,174.1 294.3,174.9 305.2,174.2 305.2,172.2 320.8,172.5 "/>
<line fill="none" stroke="#EDEDED" stroke-width="2.0404" stroke-miterlimit="10" x1="296.4" y1="193.2" x2="295.1" y2="174.7"/>
<line fill="none" stroke="#EDEDED" stroke-width="2.0404" stroke-miterlimit="10" x1="286.8" y1="174.3" x2="283.6" y2="147.5"/>
<line fill="none" stroke="#EDEDED" stroke-width="2.0404" stroke-miterlimit="10" x1="293.1" y1="174.9" x2="289.5" y2="147.1"/>
<polyline fill="none" stroke="#EDEDED" stroke-width="2.0404" stroke-miterlimit="10" points="267.1,150.8 285.5,147 316.6,144.8 
	357.4,144.2 "/>
<line fill="none" stroke="#EDEDED" stroke-width="2.0404" stroke-miterlimit="10" x1="294.3" y1="122.5" x2="297.2" y2="157.8"/>
<polyline fill="none" stroke="#EDEDED" stroke-width="2.0404" stroke-miterlimit="10" points="317.8,157.1 273.7,159.9 268.9,163.7 
	231.8,166.4 "/>
<line fill="none" stroke="#EDEDED" stroke-width="2.0404" stroke-miterlimit="10" x1="272.7" y1="149.4" x2="273.7" y2="159.9"/>
<line fill="none" stroke="#EDEDED" stroke-width="2.0404" stroke-miterlimit="10" x1="282.5" y1="86.6" x2="283.3" y2="93.3"/>
<polyline fill="none" stroke="#EDEDED" stroke-width="2.0404" stroke-miterlimit="10" points="259.9,103.3 293.8,98.3 309.7,96.1 
	"/>
<polyline fill="none" stroke="#EDEDED" stroke-width="2.0404" stroke-miterlimit="10" points="261.3,109 294.3,103.9 311.2,102.7 
	"/>
<polyline fill="none" stroke="#EDEDED" stroke-width="2.0404" stroke-miterlimit="10" points="312,108.6 294.8,109.6 261.6,115.3 
	"/>
<line fill="none" stroke="#EDEDED" stroke-width="2.0404" stroke-miterlimit="10" x1="293.3" y1="98.4" x2="294.8" y2="109.6"/>
<line fill="none" stroke="#EDEDED" stroke-width="2.0404" stroke-miterlimit="10" x1="302.4" y1="103.2" x2="303" y2="109.2"/>
<polyline fill="none" stroke="#EDEDED" stroke-width="2.0404" stroke-miterlimit="10" points="258.1,87.3 221.8,90.8 225.9,119.5 
	"/>
<polyline fill="none" stroke="#EDEDED" stroke-width="2.0404" stroke-miterlimit="10" points="175.4,126.7 229.9,119.3 261.6,116 
	"/>
<polyline fill="none" stroke="#EDEDED" stroke-width="2.0404" stroke-miterlimit="10" points="176.3,133.7 222.7,128.1 250,125.8 
	262.9,123.1 312.2,117.3 "/>
<line fill="none" stroke="#EDEDED" stroke-width="2.0404" stroke-miterlimit="10" x1="207.7" y1="122.3" x2="212" y2="161.5"/>
<line fill="none" stroke="#EDEDED" stroke-width="2.0404" stroke-miterlimit="10" x1="222.7" y1="128.1" x2="226.9" y2="165.7"/>
<polyline fill="none" stroke="#EDEDED" stroke-width="2.0404" stroke-miterlimit="10" points="172.3,138.9 263.7,127 312.7,120.6 
	321.8,119.5 352.1,115.6 "/>
<line fill="none" stroke="#EDEDED" stroke-width="2.0404" stroke-miterlimit="10" x1="236.7" y1="119" x2="240.7" y2="152.8"/>
<line fill="none" stroke="#EDEDED" stroke-width="2.0404" stroke-miterlimit="10" x1="264.7" y1="133.8" x2="174.9" y2="145.4"/>
<polyline fill="none" stroke="#EDEDED" stroke-width="2.0404" stroke-miterlimit="10" points="248.1,117 251.6,135.4 253,163.3 "/>
<line fill="none" stroke="#EDEDED" stroke-width="2.0404" stroke-miterlimit="10" x1="225.5" y1="160.1" x2="267" y2="155.7"/>
<line fill="none" stroke="#EDEDED" stroke-width="2.0404" stroke-miterlimit="10" x1="246" y1="141.6" x2="264.9" y2="139.6"/>
<line fill="none" stroke="#EDEDED" stroke-width="2.0404" stroke-miterlimit="10" x1="245.3" y1="136.3" x2="247.7" y2="153.3"/>
<line fill="none" stroke="#EDEDED" stroke-width="2.0404" stroke-miterlimit="10" x1="302.6" y1="34.3" x2="346.2" y2="44"/>
<polyline fill="none" stroke="#EDEDED" stroke-width="2.0404" stroke-miterlimit="10" points="304.2,52.1 322.6,49.2 356.2,57.5 
	392.1,66.1 469.2,137.3 "/>
<line fill="none" stroke="#EDEDED" stroke-width="2.0404" stroke-miterlimit="10" x1="315.8" y1="27.6" x2="309.3" y2="50.5"/>
<polyline fill="none" stroke="#EDEDED" stroke-width="2.0404" stroke-miterlimit="10" points="327.9,29.2 322.8,51.7 325,74.4 
	328.7,86.8 327.5,93.1 329.6,105.6 "/>
<polyline fill="none" stroke="#EDEDED" stroke-width="2.0404" stroke-miterlimit="10" points="313,109.1 351.3,102.6 357,101.3 
	405.4,49.4 "/>
<line fill="none" stroke="#EDEDED" stroke-width="2.0404" stroke-miterlimit="10" x1="311.3" y1="102.2" x2="328.4" y2="99.9"/>
<line fill="none" stroke="#EDEDED" stroke-width="2.0404" stroke-miterlimit="10" x1="320.5" y1="107.5" x2="316.2" y2="74.2"/>
<line fill="none" stroke="#EDEDED" stroke-width="2.0404" stroke-miterlimit="10" x1="307.9" y1="75.8" x2="346.7" y2="70.2"/>
<line fill="none" stroke="#EDEDED" stroke-width="2.0404" stroke-miterlimit="10" x1="306.1" y1="65.5" x2="337.1" y2="60.4"/>
<line fill="none" stroke="#EDEDED" stroke-width="2.0404" stroke-miterlimit="10" x1="336.5" y1="52.4" x2="338.8" y2="71.3"/>
<line fill="none" stroke="#EDEDED" stroke-width="2.0404" stroke-miterlimit="10" x1="310.3" y1="95.9" x2="327.5" y2="93.1"/>
<polyline fill="none" stroke="#EDEDED" stroke-width="2.0404" stroke-miterlimit="10" points="309.6,90.4 317.6,87.7 349.1,84.5 
	359.5,84.1 "/>
<line fill="none" stroke="#EDEDED" stroke-width="2.0404" stroke-miterlimit="10" x1="308.3" y1="83.2" x2="325.6" y2="79"/>
<polyline fill="none" stroke="#EDEDED" stroke-width="2.0404" stroke-miterlimit="10" points="330.9,51.8 330.1,61.5 334.4,84.5 
	335.7,104.9 "/>
<path fill="none" stroke="#EDEDED" stroke-width="2.0404" stroke-miterlimit="10" d="M313.4,116.6c1.6,0,38.4-4.4,38.4-4.4l20.6,0.1
	l8-8.4"/>
<line fill="none" stroke="#EDEDED" stroke-width="2.0404" stroke-miterlimit="10" x1="325" y1="145.1" x2="321.8" y2="119.5"/>
<line fill="none" stroke="#EDEDED" stroke-width="2.0404" stroke-miterlimit="10" x1="342.7" y1="144.7" x2="339.4" y2="117.4"/>
<line fill="none" stroke="#EDEDED" stroke-width="2.0404" stroke-miterlimit="10" x1="323" y1="125" x2="340" y2="123.1"/>
<line fill="none" stroke="#EDEDED" stroke-width="2.0404" stroke-miterlimit="10" x1="323.4" y1="131.1" x2="340.8" y2="129.5"/>
<line fill="none" stroke="#EDEDED" stroke-width="2.0404" stroke-miterlimit="10" x1="294.5" y1="129.1" x2="314.6" y2="128.3"/>
<line fill="none" stroke="#EDEDED" stroke-width="2.0404" stroke-miterlimit="10" x1="303.7" y1="137.5" x2="315.4" y2="136"/>
<line fill="none" stroke="#EDEDED" stroke-width="2.0404" stroke-miterlimit="10" x1="320.1" y1="164.3" x2="341.3" y2="163.9"/>
<line fill="none" stroke="#EDEDED" stroke-width="2.0404" stroke-miterlimit="10" x1="340.5" y1="144.5" x2="342.7" y2="221.8"/>
<line fill="none" stroke="#EDEDED" stroke-width="2.0404" stroke-miterlimit="10" x1="321.2" y1="179.6" x2="362.5" y2="179.6"/>
<line fill="none" stroke="#EDEDED" stroke-width="2.0404" stroke-miterlimit="10" x1="322.2" y1="193.4" x2="360.6" y2="192.6"/>
<line fill="none" stroke="#EDEDED" stroke-width="2.0404" stroke-miterlimit="10" x1="321.7" y1="201.9" x2="361.1" y2="200.9"/>
<line fill="none" stroke="#EDEDED" stroke-width="2.0404" stroke-miterlimit="10" x1="321.2" y1="209.2" x2="361.2" y2="207.9"/>
<polyline fill="none" stroke="#EDEDED" stroke-width="2.0404" stroke-miterlimit="10" points="321.1,172 340.5,170.7 369.1,171.4 
	"/>
<line fill="none" stroke="#EDEDED" stroke-width="2.0404" stroke-miterlimit="10" x1="370" y1="170.5" x2="406.9" y2="204.3"/>
<polyline fill="none" stroke="#EDEDED" stroke-width="2.0404" stroke-miterlimit="10" points="396.8,178.7 373.1,203.1 391,221.6 
	"/>
<line fill="none" stroke="#EDEDED" stroke-width="2.0404" stroke-miterlimit="10" x1="361.7" y1="208.2" x2="377.7" y2="207.7"/>
<polyline fill="none" stroke="#EDEDED" stroke-width="2.0404" stroke-miterlimit="10" points="361.4,193 377.4,193.7 398.8,212.3 
	"/>
<polyline fill="none" stroke="#EDEDED" stroke-width="2.0404" stroke-miterlimit="10" points="367.9,182.6 382.9,168.8 413.1,134.8 
	"/>
<polyline fill="none" stroke="#EDEDED" stroke-width="2.0404" stroke-miterlimit="10" points="371.6,186 380.4,176.8 417.3,138.6 
	"/>
<polyline fill="none" stroke="#EDEDED" stroke-width="2.0404" stroke-miterlimit="10" points="377.5,188.3 382.5,182.6 392.5,175.3 
	422.3,141.8 "/>
<line fill="none" stroke="#EDEDED" stroke-width="2.0404" stroke-miterlimit="10" x1="396.3" y1="179.1" x2="425.3" y2="145.5"/>
<line fill="none" stroke="#EDEDED" stroke-width="2.0404" stroke-miterlimit="10" x1="395.1" y1="194.4" x2="433.6" y2="152.6"/>
<line fill="none" stroke="#EDEDED" stroke-width="2.0404" stroke-miterlimit="10" x1="386.7" y1="154.7" x2="422.7" y2="187.8"/>
<line fill="none" stroke="#EDEDED" stroke-width="2.0404" stroke-miterlimit="10" x1="430.4" y1="179.6" x2="394.8" y2="145.7"/>
<line fill="none" stroke="#EDEDED" stroke-width="2.0404" stroke-miterlimit="10" x1="437.6" y1="170.5" x2="405.1" y2="143.1"/>
<line fill="none" stroke="#EDEDED" stroke-width="2.0404" stroke-miterlimit="10" x1="369.1" y1="36.8" x2="363.8" y2="58.5"/>
<line fill="none" stroke="#EDEDED" stroke-width="2.0404" stroke-miterlimit="10" x1="367" y1="49.6" x2="389.2" y2="54.3"/>
<polyline fill="none" stroke="#EDEDED" stroke-width="2.0404" stroke-miterlimit="10" points="386.8,64.9 390,50 478.2,127.2 "/>
<line fill="none" stroke="#EDEDED" stroke-width="2.0404" stroke-miterlimit="10" x1="473.8" y1="130.3" x2="420.1" y2="83.8"/>
<path fill="none" stroke="#EDEDED" stroke-width="2.0404" stroke-miterlimit="10" d="M353,112.2"/>
<line fill="none" stroke="#EDEDED" stroke-width="2.0404" stroke-miterlimit="10" x1="412.9" y1="54.9" x2="373.9" y2="98.1"/>
<line fill="none" stroke="#EDEDED" stroke-width="2.0404" stroke-miterlimit="10" x1="349.8" y1="56.3" x2="354.2" y2="84"/>
<polyline fill="none" stroke="#EDEDED" stroke-width="2.0404" stroke-miterlimit="10" points="374.3,62.1 374.1,65.9 441.4,127.4 
	"/>
<line fill="none" stroke="#EDEDED" stroke-width="2.0404" stroke-miterlimit="10" x1="358.6" y1="67.9" x2="453.9" y2="153.6"/>
<line fill="none" stroke="#EDEDED" stroke-width="2.0404" stroke-miterlimit="10" x1="359.4" y1="81.6" x2="374.1" y2="65.9"/>
<line fill="none" stroke="#EDEDED" stroke-width="2.0404" stroke-miterlimit="10" x1="391" y1="112.2" x2="432" y2="73.2"/>
<polyline fill="none" stroke="#EDEDED" stroke-width="2.0404" stroke-miterlimit="10" points="397.8,120.4 422.5,95.5 429.4,91.9 
	439.8,80.2 "/>
<line fill="none" stroke="#EDEDED" stroke-width="2.0404" stroke-miterlimit="10" x1="403" y1="124.8" x2="428" y2="98.9"/>
<polyline fill="none" stroke="#EDEDED" stroke-width="3.5708" stroke-miterlimit="10" points="418.1,137.7 432.2,119.6 454.9,95.7 
	"/>
<polyline fill="none" stroke="#EDEDED" stroke-width="2.0404" stroke-miterlimit="10" points="341.9,138.4 356,138.4 360.9,137.4 
	394.3,100.3 "/>
<line fill="none" stroke="#EDEDED" stroke-width="2.0404" stroke-miterlimit="10" x1="339.5" y1="126" x2="354.5" y2="124.6"/>
<line fill="none" stroke="#EDEDED" stroke-width="2.0404" stroke-miterlimit="10" x1="352.8" y1="118.2" x2="375.4" y2="115.6"/>
<line fill="none" stroke="#EDEDED" stroke-width="2.0404" stroke-miterlimit="10" x1="378" y1="118.8" x2="350.5" y2="90.9"/>
<line fill="none" stroke="#EDEDED" stroke-width="2.0404" stroke-miterlimit="10" x1="372.7" y1="97.7" x2="359.9" y2="111.7"/>
<line fill="none" stroke="#EDEDED" stroke-width="2.0404" stroke-miterlimit="10" x1="350.4" y1="84.6" x2="367.9" y2="102.5"/>
<polyline fill="none" stroke="#EDEDED" stroke-width="2.0404" stroke-miterlimit="10" points="385.5,91.9 401.6,75.1 417.8,60.1 "/>
<rect x="48.9" y="268.8" fill-rule="evenodd" clip-rule="evenodd" fill="none" width="75.5" height="21.2"/>
<text transform="matrix(1.0033 0 0 1 48.8775 276.0144)"><tspan x="0" y="0" fill="#1D1D1B" font-family="'ClanPro-Bold'" font-size="9.1554">16:50</tspan><tspan x="25.9" y="0" fill="#1D1D1B" font-family="'ClanPro-Bold'" font-size="7.4862"> </tspan><tspan x="27.9" y="0" fill="#1D1D1B" font-family="'ClanPro-News'" font-size="7.9347">p.m.</tspan><tspan x="0" y="5.9" fill="#1D1D1B" font-family="'ClanPro-News'" font-size="4.8829">Salida en avión</tspan><tspan x="0" y="11.7" fill="#1D1D1B" font-family="'ClanPro-News'" font-size="4.8829">hacia Lima</tspan></text>
<rect x="48.9" y="409.2" fill-rule="evenodd" clip-rule="evenodd" fill="none" width="75.5" height="21.2"/>
<text transform="matrix(1.0033 0 0 1 48.8775 416.3792)"><tspan x="0" y="0" fill="#1D1D1B" font-family="'ClanPro-Bold'" font-size="9.1554">18:40</tspan><tspan x="25.9" y="0" fill="#1D1D1B" font-family="'ClanPro-Bold'" font-size="7.4862"> </tspan><tspan x="27.9" y="0" fill="#1D1D1B" font-family="'ClanPro-News'" font-size="7.9347">p.m.</tspan><tspan x="0" y="5.9" fill="#1D1D1B" font-family="'ClanPro-News'" font-size="4.8829">Salida en avión</tspan><tspan x="0" y="11.7" fill="#1D1D1B" font-family="'ClanPro-News'" font-size="4.8829">hacia Lima</tspan></text>
<rect x="48.9" y="447.3" fill-rule="evenodd" clip-rule="evenodd" fill="none" width="67" height="33.1"/>
<text transform="matrix(1.0033 0 0 1 48.8775 454.468)"><tspan x="0" y="0" fill="#1D1D1B" font-family="'ClanPro-Bold'" font-size="9.1554">19:00</tspan><tspan x="25.9" y="0" fill="#1D1D1B" font-family="'ClanPro-Bold'" font-size="7.4862"> </tspan><tspan x="27.9" y="0" fill="#1D1D1B" font-family="'ClanPro-News'" font-size="7.9347">p.m.</tspan><tspan x="0" y="5.9" fill="#1D1D1B" font-family="'ClanPro-News'" font-size="4.8829">Encuentro privado con los </tspan><tspan x="0" y="11.7" fill="#1D1D1B" font-family="'ClanPro-News'" font-size="4.8829">miembros de la Compañía </tspan><tspan x="0" y="17.6" fill="#1D1D1B" font-family="'ClanPro-News'" font-size="4.8829">de Jesús en la iglesia de </tspan><tspan x="0" y="23.4" fill="#1D1D1B" font-family="'ClanPro-News'" font-size="4.8829">San Pedro</tspan></text>
<g>
	<path fill-rule="evenodd" clip-rule="evenodd" fill="#1D1D1B" d="M46.9,341.3l0.6,0.2l1-2l0.6,0.7l-0.2,2.2l0.3,0.2l1.9,1.5
		c0.3,0.2,0.7,0.7,1.1,0.3c0.2-0.2,0.2-0.4,0.3-0.6l0.4-0.8l1.3-3.8l0.3,0.2c0.2,0.2,0.4,0.4,0.5,0.6c0,0.2-0.1,0.8-0.1,1l-0.1,0.6
		l0.4,0.4c0.2,0.2,0.6,0.4,0.4,0.7c-0.2,0.2-0.4,0-0.6-0.1l-0.2-0.1l-0.2,1.5l0.4,0.4c0.2,0.2,0.6,0.4,0.3,0.7
		c-0.2,0.2-0.5,0-0.6-0.1l-0.2-0.1l-0.4,1.9l1.1,1.1l0.8,0.9c0.2,0.2,0.8,0.9,0.5,1.2c-0.3,0.4-1.1-0.2-1.4-0.4l-1.5-1.1l-0.5-0.5
		l-1.9,0.7l0.2,0.3c0.1,0.2,0.3,0.3,0.1,0.5c-0.3,0.3-0.6-0.2-0.8-0.3l-0.4-0.3l-1.4,0.3l0.2,0.3c0.1,0.2,0.3,0.3,0.1,0.5
		c-0.2,0.3-0.6-0.1-0.7-0.3l-0.4-0.3l-0.6,0.1c-0.2,0-0.9,0.2-1.1,0.2c-0.2,0-0.5-0.3-0.6-0.4l-0.3-0.2l3.3-1.5l1.1-0.7
		c0.2-0.1,0.4-0.2,0.5-0.4c0.4-0.4-0.2-0.8-0.5-1l-1.9-2l-2.2,0.4l-0.8-0.5l1.8-1.2L46.9,341.3z"/>
</g>
<g>
	<g>
		<path fill="#1D1D1B" d="M377.8,140.1c0,0-0.1,0.1-0.1,0.1c-0.1,0.1-0.3,0-0.3-0.1c-0.1-0.2-0.2-0.5-0.3-0.7c0,0,0,0,0,0
			c0,0,0,0,0,0.1c0,0.9,0,1.7,0,2.6c0,0.1,0,0.1,0,0.2c0,0.1-0.1,0.2-0.3,0.2c-0.1,0-0.3-0.1-0.3-0.3c0-0.3,0-0.7,0-1c0,0,0,0,0-0.1
			c0.1-0.1,0.1-0.3,0-0.4c-0.2-0.5-0.5-1-0.7-1.5c-0.1-0.1-0.1-0.2-0.2-0.3c0,0-0.1,0-0.1,0c0.1-0.2,0.1-0.3,0.2-0.5
			c0-0.1,0.1-0.2,0.3-0.2c0.3,0,0.6,0,0.8,0c0.1,0,0.2,0.1,0.3,0.2c0.2,0.5,0.5,1.1,0.7,1.6c0,0,0,0,0,0
			C377.8,140,377.8,140,377.8,140.1z"/>
		<path fill="#1D1D1B" d="M370.4,140c0.2-0.4,0.3-0.7,0.5-1.1c0.1-0.1,0.1-0.3,0.2-0.4c0-0.1,0.1-0.1,0.2-0.1c0.2,0,0.5,0,0.7,0
			c0.1,0,0.1,0,0.1,0.1c0,0.1,0.1,0.2,0.1,0.3c0,0,0,0,0,0.1c0,0,0,0,0,0c-0.2,0.1-0.2,0.2-0.3,0.3c-0.2,0.5-0.5,1-0.7,1.5
			c-0.1,0.2,0,0.4,0.2,0.5c0,0,0.1,0,0.2,0.1c0,0,0,0,0,0c0,0.2,0,0.5,0,0.7c0,0.1-0.1,0.2-0.2,0.2c-0.1,0-0.2-0.1-0.3-0.2
			c0,0,0-0.1,0-0.1c0-0.8,0-1.6,0-2.3c0,0,0-0.1,0-0.1c0,0.1-0.1,0.1-0.1,0.2c-0.1,0.2-0.1,0.3-0.2,0.5c0,0.1-0.1,0.2-0.2,0.2
			c-0.1,0-0.2-0.1-0.2-0.1C370.4,140,370.4,140,370.4,140z"/>
		<path fill="#1D1D1B" d="M375,141.3c-0.1,0-0.1,0-0.2,0c0,0.1,0,0.2,0,0.4c0,0.4,0,0.8,0,1.2c0,0.2-0.1,0.3-0.2,0.3
			c-0.1,0-0.3-0.1-0.3-0.2c0,0,0-0.1,0-0.1c0-0.9,0-1.7,0-2.6c0,0,0-0.1,0-0.1c0,0,0,0,0,0.1c-0.1,0.2-0.2,0.5-0.3,0.7
			c0,0.1-0.1,0.1-0.2,0.1c-0.1,0-0.2-0.1-0.2-0.2c0-0.1,0-0.1,0-0.2c0.2-0.5,0.5-1.1,0.7-1.6c0-0.1,0.1-0.2,0.2-0.2
			c0.3,0,0.6,0,0.9,0c0.1,0,0.2,0.1,0.3,0.2c0.2,0.5,0.5,1.1,0.7,1.6c0.1,0.1,0,0.2,0,0.3c-0.1,0.1-0.2,0.1-0.3,0
			c0,0-0.1-0.1-0.1-0.1c-0.1-0.2-0.2-0.4-0.3-0.7c0,0,0,0,0-0.1c0,0,0,0.1,0,0.1c0,0.9,0,1.8,0,2.7c0,0.2-0.2,0.3-0.3,0.3
			c-0.1,0-0.2-0.1-0.2-0.2c0-0.2,0-0.3,0-0.5C375,142.1,375,141.8,375,141.3C375,141.4,375,141.4,375,141.3z"/>
		<path fill="#1D1D1B" d="M372.1,140.1c-0.1,0.2-0.2,0.5-0.3,0.7c0,0,0,0,0,0.1c-0.1,0.1-0.2,0.2-0.3,0.1c-0.1-0.1-0.2-0.2-0.1-0.3
			c0.1-0.2,0.2-0.5,0.3-0.7c0.1-0.3,0.3-0.6,0.4-0.9c0.1-0.1,0.1-0.2,0.3-0.2c0.3,0,0.6,0,0.9,0c0.1,0,0.2,0.1,0.2,0.2
			c0.1,0.2,0.2,0.4,0.3,0.6c0,0,0,0.1,0,0.1c-0.1,0.2-0.1,0.3-0.2,0.5c0-0.1,0-0.1-0.1-0.1c0,0,0,0,0,0c0,0,0,0.1,0,0.1
			c0,0.1,0,0.3-0.1,0.4c-0.1,0.1-0.1,0.2,0,0.3c0,0,0,0.1,0.1,0.1c0.1,0.1,0.1,0.1,0.1,0.2c0,0.5,0,1.1,0,1.6c0,0.1-0.1,0.3-0.2,0.3
			c-0.1,0-0.3-0.1-0.3-0.2c0,0,0-0.1,0-0.1c0-0.5,0-1,0-1.5c0,0,0-0.1,0-0.1c-0.1,0-0.1,0-0.2,0c0,0,0,0.1,0,0.1c0,0.5,0,1,0,1.5
			c0,0.1-0.1,0.3-0.2,0.3c-0.1,0-0.3-0.1-0.3-0.2c0,0,0-0.1,0-0.2C372.2,142,372.2,141.1,372.1,140.1
			C372.2,140.2,372.2,140.2,372.1,140.1C372.2,140.1,372.1,140.1,372.1,140.1z"/>
		<path fill="#1D1D1B" d="M376.4,138c-0.3,0-0.5-0.2-0.5-0.5c0-0.3,0.2-0.5,0.5-0.5c0.3,0,0.5,0.2,0.5,0.5
			C376.9,137.8,376.7,138,376.4,138z"/>
		<path fill="#1D1D1B" d="M374.9,138.9c-0.3,0-0.5-0.2-0.5-0.5c0-0.3,0.2-0.5,0.5-0.5c0.3,0,0.5,0.2,0.5,0.5
			C375.5,138.6,375.2,138.9,374.9,138.9z"/>
		<path fill="#1D1D1B" d="M373.3,138.3c0,0.3-0.2,0.5-0.5,0.5c-0.3,0-0.5-0.2-0.5-0.5c0-0.3,0.2-0.5,0.5-0.5
			C373.1,137.8,373.3,138,373.3,138.3z"/>
		<path fill="#1D1D1B" d="M374.2,136.9c0.4,0,0.6,0.3,0.5,0.7c0,0,0,0.1-0.1,0.1c-0.1,0.1-0.3,0.1-0.3,0.3c0,0-0.1,0-0.1,0
			c-0.3,0-0.5-0.2-0.5-0.5C373.7,137.2,374,136.9,374.2,136.9z"/>
		<path fill="#1D1D1B" d="M373.4,138.8c0.1-0.2,0.1-0.3,0.2-0.5c0-0.1,0.1-0.2,0.3-0.2c0.1,0,0.3,0,0.5,0c-0.1,0.3,0,0.5,0.1,0.7
			c-0.2,0-0.3,0.2-0.4,0.4c0,0.1-0.1,0.2-0.2,0.4c-0.1-0.1-0.1-0.3-0.2-0.4C373.6,138.9,373.5,138.8,373.4,138.8z"/>
		<path fill="#1D1D1B" d="M373.6,137.1c-0.2,0.3-0.1,0.6,0.1,0.8c-0.1,0-0.2,0.1-0.2,0.1c-0.1-0.2-0.2-0.4-0.5-0.4
			c-0.2-0.1-0.5,0-0.7,0.1c0.1-0.2,0.2-0.4,0.3-0.6c0-0.1,0.1-0.1,0.2-0.1c0.2,0,0.5,0,0.7,0C373.6,137,373.6,137.1,373.6,137.1z"/>
		<path fill="#1D1D1B" d="M371.7,137.3c0.3,0,0.5,0.2,0.5,0.5c0,0.3-0.2,0.5-0.5,0.5c-0.3,0-0.5-0.2-0.5-0.5
			C371.2,137.5,371.4,137.3,371.7,137.3z"/>
		<path fill="#1D1D1B" d="M375.9,136.9c0,0,0,0.1-0.1,0.1c0,0-0.1,0.1-0.1,0.1c-0.1,0.2-0.2,0.2-0.4,0.2c-0.2,0-0.4-0.2-0.5-0.4
			c0-0.3,0.2-0.5,0.4-0.5C375.6,136.4,375.9,136.6,375.9,136.9z"/>
		<path fill="#1D1D1B" d="M373.2,137c-0.3,0-0.5-0.2-0.5-0.5c0-0.3,0.2-0.5,0.5-0.5c0.3,0,0.5,0.2,0.5,0.5
			C373.6,136.8,373.4,137,373.2,137z"/>
		<path fill="#1D1D1B" d="M375.8,141c0.1,0.2,0.3,0.3,0.5,0.2c0,0,0,0,0,0.1c0,0.3,0,0.5,0,0.8c0,0.2-0.1,0.3-0.3,0.3
			c-0.1,0-0.2-0.1-0.2-0.2C375.8,141.8,375.8,141.4,375.8,141C375.8,141.1,375.8,141,375.8,141z"/>
		<path fill="#1D1D1B" d="M373.6,141.3c0.1,0,0.2-0.1,0.3-0.1c0.1,0,0.1,0,0.2,0c0,0,0,0.1,0,0.1c0,0.3,0,0.6,0,0.8
			c0,0.1-0.1,0.2-0.2,0.2c-0.1,0-0.3-0.1-0.3-0.3C373.6,141.8,373.6,141.6,373.6,141.3C373.6,141.3,373.6,141.3,373.6,141.3z"/>
		<path fill="#1D1D1B" d="M374.9,137.6c0-0.1,0-0.1,0.1-0.1c0.2,0,0.4,0,0.6,0c0,0.2,0.1,0.3,0.2,0.5c-0.1,0-0.2,0.1-0.2,0.1
			C375.5,137.8,375.3,137.6,374.9,137.6z"/>
		<path fill="#1D1D1B" d="M372,142.2c-0.1,0-0.2-0.1-0.2-0.2c0-0.2,0-0.5,0-0.7c0,0,0,0,0-0.1c0.1-0.1,0.1-0.1,0.2-0.2
			C372,141.4,372,141.8,372,142.2z"/>
	</g>
</g>
<polyline fill="none" stroke="#F49824" stroke-width="1.0202" stroke-miterlimit="10" points="68.5,358.9 68.5,352.7 159,352.7 
	190.9,317.3 190.9,307.6 254.5,241.4 315.7,221.6 391,221.6 415.8,195.9 364.9,151.6 "/>
<rect x="212.2" y="71.8" fill-rule="evenodd" clip-rule="evenodd" fill="none" width="81.7" height="25.5"/>
<text transform="matrix(1.0033 0 0 1 212.154 78.9832)"><tspan x="0" y="0" fill="#1D1D1B" font-family="'ClanPro-Bold'" font-size="9.1554">15:45</tspan><tspan x="25.9" y="0" fill="#1D1D1B" font-family="'ClanPro-Bold'" font-size="7.4862"> </tspan><tspan x="27.9" y="0" fill="#1D1D1B" font-family="'ClanPro-News'" font-size="7.9347">p.m.</tspan><tspan x="0" y="8.4" fill="#1D1D1B" font-family="'ClanPro-News'" font-size="7">Visita al</tspan><tspan x="0" y="16.8" fill="#1D1D1B" font-family="'ClanPro-News'" font-size="7">“Hogar Principito”</tspan></text>
<g>
	<g>
		<g>
			<path d="M180.5,87.5c-0.9,0-1.9,0-2.8,0c-0.5,0-0.6-0.1-0.6-0.6c0-1.3,0-2.5,0-3.8c0-0.1,0-0.2,0-0.3c-0.4,0.1-0.8,0.2-1.2,0.3
				c-0.1,0-0.3-0.1-0.4-0.1c0-0.1,0-0.1,0-0.2c0,0,0.1-0.1,0.1-0.1c2-1.8,4-3.5,6-5.3c0.2-0.2,0.3-0.1,0.5,0
				c0.9,0.8,1.7,1.6,2.6,2.4c0.1,0.1,0.1,0.1,0.2,0.2c0-0.5,0-0.9,0-1.3c0-0.2,0.1-0.3,0.3-0.3c0.3,0,0.6,0,0.9,0
				c0.4,0,0.4,0,0.4,0.4c0,0.8,0,1.7,0,2.5c0,0.1,0,0.2,0.1,0.3c0.4,0.4,0.9,0.8,1.3,1.2c0,0.1,0,0.1,0,0.2c-0.1,0-0.3,0.1-0.4,0.1
				c-0.5-0.1-0.9-0.2-1.4-0.3c0,0.1,0,0.2,0,0.3c0,1.3,0,2.5,0,3.8c0,0.5-0.2,0.7-0.7,0.7c-0.9,0-1.8,0-2.7,0"/>
		</g>
	</g>
	<g>
		<g>
			<path fill="#FFFFFF" d="M184.2,85.2C184.2,85.2,184.2,85.2,184.2,85.2c-0.2,0.1-0.3,0.1-0.3,0c-0.1-0.2-0.2-0.3-0.2-0.5
				c0,0,0,0,0,0c0,0,0,0,0,0c0,0.6,0,1.2,0,1.8c0,0,0,0.1,0,0.1c0,0.1-0.1,0.2-0.2,0.2c-0.1,0-0.2-0.1-0.2-0.2c0-0.2,0-0.5,0-0.7
				c0,0,0,0,0,0c0.1-0.1,0.1-0.2,0-0.3c-0.2-0.3-0.3-0.7-0.5-1.1c0-0.1-0.1-0.2-0.2-0.2c0,0-0.1,0-0.1,0c0-0.1,0.1-0.2,0.1-0.3
				c0-0.1,0.1-0.1,0.2-0.1c0.2,0,0.4,0,0.6,0c0.1,0,0.1,0,0.2,0.1c0.2,0.4,0.3,0.8,0.5,1.1C184.2,85.1,184.2,85.1,184.2,85.2
				C184.2,85.1,184.2,85.1,184.2,85.2z"/>
			<path fill="#FFFFFF" d="M179,85.1c0.1-0.3,0.2-0.5,0.3-0.8c0-0.1,0.1-0.2,0.1-0.3c0-0.1,0.1-0.1,0.2-0.1c0.2,0,0.3,0,0.5,0
				c0,0,0.1,0,0.1,0.1c0,0.1,0,0.1,0.1,0.2c0,0,0,0,0,0c0,0,0,0,0,0c-0.1,0-0.2,0.1-0.2,0.2c-0.2,0.4-0.3,0.7-0.5,1.1
				c-0.1,0.2,0,0.3,0.1,0.4c0,0,0.1,0,0.1,0c0,0,0,0,0,0c0,0.2,0,0.3,0,0.5c0,0.1-0.1,0.2-0.2,0.2c-0.1,0-0.2-0.1-0.2-0.1
				c0,0,0,0,0-0.1c0-0.5,0-1.1,0-1.6c0,0,0,0,0-0.1c0,0,0,0.1-0.1,0.1c0,0.1-0.1,0.2-0.1,0.3c0,0.1-0.1,0.1-0.1,0.1
				C179.1,85.3,179,85.2,179,85.1C179,85.1,179,85.1,179,85.1z"/>
			<path fill="#FFFFFF" d="M182.3,86.1c0,0-0.1,0-0.1,0c0,0.1,0,0.2,0,0.2c0,0.3,0,0.6,0,0.9c0,0.1-0.1,0.2-0.2,0.2
				c-0.1,0-0.2-0.1-0.2-0.2c0,0,0-0.1,0-0.1c0-0.6,0-1.2,0-1.8c0,0,0,0,0-0.1c0,0,0,0,0,0c-0.1,0.2-0.1,0.3-0.2,0.5
				c0,0.1-0.1,0.1-0.2,0.1c-0.1,0-0.1,0-0.1-0.1c0,0,0-0.1,0-0.1c0.2-0.4,0.3-0.8,0.5-1.1c0-0.1,0.1-0.1,0.2-0.1c0.2,0,0.4,0,0.6,0
				c0.1,0,0.1,0,0.2,0.1c0.2,0.4,0.3,0.7,0.5,1.1c0,0.1,0,0.2,0,0.2c-0.1,0-0.1,0.1-0.2,0c0,0-0.1-0.1-0.1-0.1
				c-0.1-0.2-0.1-0.3-0.2-0.5c0,0,0,0,0,0c0,0,0,0,0,0.1c0,0.6,0,1.3,0,1.9c0,0.1-0.1,0.2-0.2,0.2c-0.1,0-0.1-0.1-0.1-0.2
				c0-0.1,0-0.2,0-0.3C182.3,86.6,182.3,86.4,182.3,86.1C182.3,86.1,182.3,86.1,182.3,86.1z"/>
			<path fill="#FFFFFF" d="M180.2,85.2c-0.1,0.2-0.1,0.3-0.2,0.5c0,0,0,0,0,0c0,0.1-0.1,0.1-0.2,0.1c-0.1,0-0.1-0.1-0.1-0.2
				c0.1-0.2,0.1-0.3,0.2-0.5c0.1-0.2,0.2-0.4,0.3-0.6c0-0.1,0.1-0.1,0.2-0.1c0.2,0,0.4,0,0.6,0c0.1,0,0.1,0,0.2,0.1
				c0.1,0.1,0.1,0.3,0.2,0.4c0,0,0,0,0,0.1c0,0.1-0.1,0.2-0.2,0.3c0,0,0-0.1,0-0.1c0,0,0,0,0,0c0,0,0,0.1,0,0.1c0,0.1,0,0.2-0.1,0.3
				c0,0.1,0,0.1,0,0.2c0,0,0,0.1,0,0.1c0,0,0,0.1,0,0.1c0,0.4,0,0.8,0,1.1c0,0.1-0.1,0.2-0.2,0.2c-0.1,0-0.2,0-0.2-0.1
				c0,0,0-0.1,0-0.1c0-0.3,0-0.7,0-1c0,0,0,0,0-0.1c0,0-0.1,0-0.1,0c0,0,0,0,0,0.1c0,0.4,0,0.7,0,1.1c0,0.1-0.1,0.2-0.2,0.2
				c-0.1,0-0.2,0-0.2-0.1c0,0,0-0.1,0-0.1C180.3,86.5,180.3,85.9,180.2,85.2C180.3,85.2,180.3,85.2,180.2,85.2
				C180.3,85.2,180.3,85.2,180.2,85.2z"/>
			<path fill="#FFFFFF" d="M183.2,83.7c-0.2,0-0.4-0.2-0.4-0.4c0-0.2,0.2-0.4,0.4-0.4c0.2,0,0.4,0.2,0.4,0.4
				C183.6,83.6,183.4,83.7,183.2,83.7z"/>
			<path fill="#FFFFFF" d="M182.2,84.3c-0.2,0-0.4-0.2-0.4-0.4c0-0.2,0.2-0.4,0.4-0.4c0.2,0,0.4,0.2,0.4,0.4
				C182.6,84.2,182.4,84.3,182.2,84.3z"/>
			<path fill="#FFFFFF" d="M181.1,83.9c0,0.2-0.2,0.4-0.4,0.4c-0.2,0-0.4-0.2-0.4-0.4c0-0.2,0.2-0.4,0.4-0.4
				C180.9,83.5,181.1,83.7,181.1,83.9z"/>
			<path fill="#FFFFFF" d="M181.7,83c0.2,0,0.4,0.2,0.4,0.5c0,0,0,0,0,0.1c-0.1,0-0.2,0.1-0.2,0.2c0,0,0,0-0.1,0
				c-0.2,0-0.4-0.2-0.4-0.4C181.4,83.1,181.5,83,181.7,83z"/>
			<path fill="#FFFFFF" d="M181.1,84.2c0-0.1,0.1-0.2,0.1-0.3c0-0.1,0.1-0.1,0.2-0.1c0.1,0,0.2,0,0.3,0c-0.1,0.2,0,0.3,0.1,0.5
				c-0.1,0-0.2,0.1-0.2,0.2c0,0.1-0.1,0.2-0.1,0.2c0-0.1-0.1-0.2-0.1-0.3C181.3,84.4,181.2,84.3,181.1,84.2z"/>
			<path fill="#FFFFFF" d="M181.3,83.1c-0.1,0.2-0.1,0.4,0,0.6c-0.1,0-0.1,0.1-0.2,0.1c-0.1-0.2-0.2-0.3-0.3-0.3
				c-0.2,0-0.3,0-0.5,0.1c0.1-0.1,0.1-0.3,0.2-0.4c0-0.1,0.1-0.1,0.1-0.1C180.9,83,181,83,181.3,83.1
				C181.2,83,181.3,83.1,181.3,83.1z"/>
			<path fill="#FFFFFF" d="M179.9,83.2c0.2,0,0.3,0.1,0.3,0.3c0,0.2-0.2,0.3-0.3,0.3c-0.2,0-0.3-0.2-0.3-0.3
				C179.6,83.4,179.7,83.2,179.9,83.2z"/>
			<path fill="#FFFFFF" d="M182.9,83c0,0,0,0.1,0,0.1c0,0,0,0.1,0,0.1c0,0.1-0.1,0.1-0.3,0.1c-0.2,0-0.3-0.1-0.3-0.3
				c0-0.2,0.1-0.3,0.2-0.4C182.6,82.6,182.9,82.7,182.9,83z"/>
			<path fill="#FFFFFF" d="M181,83c-0.2,0-0.3-0.1-0.3-0.3c0-0.2,0.1-0.3,0.3-0.3c0.2,0,0.3,0.1,0.3,0.3C181.3,82.8,181.2,83,181,83
				z"/>
			<path fill="#FFFFFF" d="M182.8,85.8c0.1,0.1,0.2,0.2,0.4,0.1c0,0,0,0,0,0c0,0.2,0,0.4,0,0.6c0,0.1-0.1,0.2-0.2,0.2
				c-0.1,0-0.1-0.1-0.1-0.2C182.8,86.4,182.8,86.1,182.8,85.8C182.8,85.9,182.8,85.8,182.8,85.8z"/>
			<path fill="#FFFFFF" d="M181.3,86c0.1,0,0.1,0,0.2,0c0,0,0.1,0,0.1,0c0,0,0,0,0,0.1c0,0.2,0,0.4,0,0.6c0,0.1-0.1,0.2-0.2,0.2
				c-0.1,0-0.2-0.1-0.2-0.2C181.3,86.4,181.3,86.2,181.3,86C181.3,86,181.3,86,181.3,86z"/>
			<path fill="#FFFFFF" d="M182.2,83.5C182.2,83.4,182.2,83.4,182.2,83.5c0.2-0.1,0.4-0.1,0.5-0.1c0,0.1,0,0.2,0.1,0.3
				c-0.1,0-0.1,0.1-0.2,0.1C182.6,83.6,182.4,83.5,182.2,83.5z"/>
			<path fill="#FFFFFF" d="M180.1,86.6c-0.1,0-0.2-0.1-0.2-0.2c0-0.2,0-0.3,0-0.5c0,0,0,0,0,0c0,0,0.1-0.1,0.1-0.1
				C180.1,86.1,180.1,86.3,180.1,86.6z"/>
		</g>
	</g>
</g>
<rect x="274.5" y="131.3" fill-rule="evenodd" clip-rule="evenodd" fill="none" width="75.5" height="25.8"/>
<text transform="matrix(1.0033 0 0 1 305.5914 138.5032)"><tspan x="0" y="0" fill="#1D1D1B" font-family="'ClanPro-Bold'" font-size="9.1554">12:00</tspan><tspan x="25.9" y="0" fill="#1D1D1B" font-family="'ClanPro-Bold'" font-size="7.4862"> </tspan><tspan x="27.9" y="0" fill="#1D1D1B" font-family="'ClanPro-News'" font-size="7.9347">p.m.</tspan><tspan x="-26.1" y="5.9" fill="#1D1D1B" font-family="'ClanPro-News'" font-size="4.8829">Encuentro con los pueblos de </tspan><tspan x="-16.3" y="11.7" fill="#1D1D1B" font-family="'ClanPro-News'" font-size="4.8829">la amazonia en el Coliseo </tspan><tspan x="-12.6" y="17.6" fill="#1D1D1B" font-family="'ClanPro-News'" font-size="4.8829">Regional Madre de Dios</tspan></text>
<g>
	<g>
		<linearGradient id="SVGID_1_" gradientUnits="userSpaceOnUse" x1="68.649" y1="363.1466" x2="68.649" y2="355.5652">
			<stop  offset="0" style="stop-color:#FFFFFF"/>
			<stop  offset="1" style="stop-color:#969695"/>
		</linearGradient>
		<ellipse fill="url(#SVGID_1_)" cx="68.6" cy="358.4" rx="4.9" ry="1.3"/>
	</g>
	<path fill="#DE0A14" d="M68.7,337.6c-4.2,0-7.6,3.4-7.6,7.6c0,4.5,7.6,13.2,7.6,13.2s7.6-8.4,7.6-13.2
		C76.3,341,72.9,337.6,68.7,337.6z"/>
	<path fill="#FFFFFF" d="M69.5,349.6c-3.2,0.5-6-2.2-5.4-5.4c0.3-1.9,1.9-3.5,3.8-3.8c3.2-0.5,5.9,2.2,5.4,5.4
		C73,347.7,71.5,349.2,69.5,349.6z"/>
	<text transform="matrix(1 0 0 1 66.1988 347.8767)" fill="#1D1D1B" font-family="'ClanPro-Black'" font-size="8.3062">1</text>
</g>
<g>
	<g>
		<linearGradient id="SVGID_2_" gradientUnits="userSpaceOnUse" x1="360.0571" y1="159.7984" x2="360.0571" y2="152.2169">
			<stop  offset="0" style="stop-color:#FFFFFF"/>
			<stop  offset="1" style="stop-color:#969695"/>
		</linearGradient>
		<ellipse fill="url(#SVGID_2_)" cx="360.1" cy="155" rx="4.9" ry="1.3"/>
	</g>
	<path fill="#DE0A14" d="M360.1,134.3c-4.2,0-7.6,3.4-7.6,7.6c0,4.5,7.6,13.2,7.6,13.2s7.6-8.4,7.6-13.2
		C367.7,137.7,364.3,134.3,360.1,134.3z"/>
	<circle fill="#FFFFFF" cx="360.1" cy="141.6" r="4.7"/>
	<text transform="matrix(1 0 0 1 357.606 144.5286)" fill="#1D1D1B" font-family="'ClanPro-Black'" font-size="8.3062">2</text>
</g>
<g>
	<g>
		<linearGradient id="SVGID_3_" gradientUnits="userSpaceOnUse" x1="387.8658" y1="153.3145" x2="387.8658" y2="145.733">
			<stop  offset="0" style="stop-color:#FFFFFF"/>
			<stop  offset="1" style="stop-color:#969695"/>
		</linearGradient>
		<ellipse fill="url(#SVGID_3_)" cx="387.9" cy="148.6" rx="4.9" ry="1.3"/>
	</g>
	<path fill="#DE0A14" d="M387.9,127.8c-4.2,0-7.6,3.4-7.6,7.6c0,4.5,7.6,13.2,7.6,13.2s7.6-8.4,7.6-13.2
		C395.6,131.2,392.1,127.8,387.9,127.8z"/>
	<circle fill="#FFFFFF" cx="387.9" cy="135.1" r="4.7"/>
	<text transform="matrix(1 0 0 1 385.4155 138.0447)" fill="#1D1D1B" font-family="'ClanPro-Black'" font-size="8.3062">3</text>
</g>
<polyline fill="none" stroke="#F49824" stroke-width="1.0202" stroke-miterlimit="10" points="379.5,162.9 389.3,152 408.8,130.5 
	359.5,84.1 356.1,56.9 361.1,35 301.9,24.6 262.8,30.2 243.1,44 197.9,61 205.8,84.5 "/>
<polyline fill="none" stroke="#F49824" stroke-width="1.0202" stroke-miterlimit="10" points="197.6,61.3 134.1,107.1 79.6,145.2 
	40.9,161 38.1,275 36.6,464.1 "/>
<path d="M13.4,279.2c0.5,0.5,1,0.9,1.5,1.4c0,0,0,0,0,0c-0.1,0.1-0.3,0.2-0.2,0.3c0,0.1,0.3,0.2,0.4,0.2c1.5,0,2.9-0.2,4.2-0.8
	c0.3-0.1,0.6-0.3,1-0.4c-0.6,0.9-1.3,1.8-1.9,2.6c0.4-0.2,0.9-0.3,1.3-0.6c0.3-0.3,0.6-0.5,0.9-0.8c0.1,0,0.1-0.1,0.2-0.1
	c0.2-0.1,0.5-0.1,0.7-0.2c0.1,0,0.1-0.1,0.1-0.2c0-0.1,0-0.2-0.1-0.3c0.2-0.2,0.4-0.5,0.8-0.5c0.2,0,0.3-0.1,0.5-0.1
	c0.3-0.1,0.3-0.2,0.2-0.5c0,0,0-0.1-0.1-0.1c0.4-0.3,0.7-0.7,1.2-0.9c0.9-0.4,1.7-0.8,2.4-1.4c0.2-0.2,0.3-0.3,0.5-0.5
	c0.2-0.2,0.1-0.4-0.2-0.5c-0.7-0.1-1.3-0.2-2,0.1c-0.7,0.4-1.4,0.7-2.1,1c-0.4,0.2-0.8,0.3-1.3,0.4c-1.2,0.2-2.5,0.3-3.7,0.5
	c-0.4,0.1-0.7,0.3-1.1,0.4c0,0,0,0,0,0.1c0.5,0,1,0.1,1.5,0.1c0,0.3,0.1,0.2,0.3,0.2c0.4-0.2,0.7-0.1,1.1-0.1
	c-0.1,0-0.1,0.1-0.1,0.1c-0.7,0.3-1.4,0.6-2.1,0.9c-0.2,0.1-0.4,0.1-0.6,0c-0.7-0.2-1.4-0.4-2.2-0.6c-0.1,0-0.2,0-0.3,0
	C13.9,278.9,13.7,279,13.4,279.2z"/>
<g>
	<g>
		<linearGradient id="SVGID_4_" gradientUnits="userSpaceOnUse" x1="37.7024" y1="291.3985" x2="37.7024" y2="283.817">
			<stop  offset="0" style="stop-color:#FFFFFF"/>
			<stop  offset="1" style="stop-color:#969695"/>
		</linearGradient>
		<ellipse fill="url(#SVGID_4_)" cx="37.7" cy="286.6" rx="4.9" ry="1.3"/>
	</g>
	<path fill="#DE0A14" d="M37.8,265.9c-4.2,0-7.6,3.4-7.6,7.6c0,4.5,7.6,13.2,7.6,13.2s7.6-8.4,7.6-13.2
		C45.4,269.3,42,265.9,37.8,265.9z"/>
	<circle fill="#FFFFFF" cx="37.8" cy="273.2" r="4.7"/>
	<text transform="matrix(1 0 0 1 35.252 276.1282)" fill="#1D1D1B" font-family="'ClanPro-Black'" font-size="8.3062">5</text>
</g>
<g>
	<g>
		<linearGradient id="SVGID_5_" gradientUnits="userSpaceOnUse" x1="37.3514" y1="432.784" x2="37.3514" y2="425.2025">
			<stop  offset="0" style="stop-color:#FFFFFF"/>
			<stop  offset="1" style="stop-color:#969695"/>
		</linearGradient>
		<ellipse fill="url(#SVGID_5_)" cx="37.4" cy="428" rx="4.9" ry="1.3"/>
	</g>
	<path fill="#DE0A14" d="M37.4,407.3c-4.2,0-7.6,3.4-7.6,7.6c0,4.5,7.6,13.2,7.6,13.2s7.6-8.4,7.6-13.2
		C45,410.7,41.6,407.3,37.4,407.3z"/>
	<circle fill="#FFFFFF" cx="37.4" cy="414.6" r="4.7"/>
	<text transform="matrix(1 0 0 1 34.901 417.5139)" fill="#1D1D1B" font-family="'ClanPro-Black'" font-size="8.3062">6</text>
</g>
<g>
	<g>
		<linearGradient id="SVGID_6_" gradientUnits="userSpaceOnUse" x1="37.7024" y1="469.767" x2="37.7024" y2="462.1855">
			<stop  offset="0" style="stop-color:#FFFFFF"/>
			<stop  offset="1" style="stop-color:#969695"/>
		</linearGradient>
		<ellipse fill="url(#SVGID_6_)" cx="37.7" cy="465" rx="4.9" ry="1.3"/>
	</g>
	<path fill="#DE0A14" d="M37.8,444.2c-4.2,0-7.6,3.4-7.6,7.6c0,4.5,7.6,13.2,7.6,13.2s7.6-8.4,7.6-13.2
		C45.4,447.6,42,444.2,37.8,444.2z"/>
	<circle fill="#FFFFFF" cx="37.8" cy="451.5" r="4.7"/>
	<text transform="matrix(1 0 0 1 35.252 454.4964)" fill="#1D1D1B" font-family="'ClanPro-Black'" font-size="8.3062">5</text>
</g>
<rect x="393.4" y="136.8" fill-rule="evenodd" clip-rule="evenodd" fill="none" width="75.5" height="20.3"/>
<text transform="matrix(1.0033 0 0 1 393.4234 144.0462)"><tspan x="0" y="0" fill="#1D1D1B" font-family="'ClanPro-Bold'" font-size="9.1554">13:00</tspan><tspan x="25.9" y="0" fill="#1D1D1B" font-family="'ClanPro-Bold'" font-size="7.4862"> </tspan><tspan x="27.9" y="0" fill="#1D1D1B" font-family="'ClanPro-News'" font-size="7.9347">p.m.</tspan><tspan x="0" y="5.9" fill="#1D1D1B" font-family="'ClanPro-News'" font-size="4.8829">Encuentro con la población en </tspan><tspan x="0" y="11.7" fill="#1D1D1B" font-family="'ClanPro-News'" font-size="4.8829">el Instituto Jorge Basadre</tspan></text>
<rect x="393.4" y="162.8" fill-rule="evenodd" clip-rule="evenodd" fill="none" width="75.5" height="33.1"/>
<text transform="matrix(1.0033 0 0 1 393.4234 169.9646)"><tspan x="0" y="0" fill="#1D1D1B" font-family="'ClanPro-Bold'" font-size="9.1554">13:15</tspan><tspan x="25.9" y="0" fill="#1D1D1B" font-family="'ClanPro-Bold'" font-size="7.4862"> </tspan><tspan x="27.9" y="0" fill="#1D1D1B" font-family="'ClanPro-News'" font-size="7.9347">p.m.</tspan><tspan x="0" y="5.9" fill="#1D1D1B" font-family="'ClanPro-News'" font-size="4.8829">Almuerzo con los </tspan><tspan x="0" y="11.7" fill="#1D1D1B" font-family="'ClanPro-News'" font-size="4.8829">representantes de los pueblos </tspan><tspan x="0" y="17.6" fill="#1D1D1B" font-family="'ClanPro-News'" font-size="4.8829">de la amazonia en el Centro </tspan><tspan x="0" y="23.4" fill="#1D1D1B" font-family="'ClanPro-News'" font-size="4.8829">Pastoral “Apaktone”</tspan><tspan x="48.2" y="23.4" fill="#1D1D1B" font-family="'ClanPro-News'" font-size="4.8829" letter-spacing="10">	</tspan></text>
<rect x="78" y="340.9" fill-rule="evenodd" clip-rule="evenodd" fill="none" width="75.5" height="20"/>
<text transform="matrix(1.0033 0 0 1 78.0123 348.1404)"><tspan x="0" y="0" fill="#1D1D1B" font-family="'ClanPro-Bold'" font-size="9.1554">11:45</tspan><tspan x="25.9" y="0" fill="#1D1D1B" font-family="'ClanPro-Bold'" font-size="7.4862"> </tspan><tspan x="27.9" y="0" fill="#1D1D1B" font-family="'ClanPro-News'" font-size="7.9347">a.m.</tspan><tspan x="0" y="5.9" fill="#1D1D1B" font-family="'ClanPro-News'" font-size="4.8829">Llegada al aeropuerto de </tspan><tspan x="0" y="11.7" fill="#1D1D1B" font-family="'ClanPro-News'" font-size="4.8829">Puerto Maldonado</tspan><tspan x="44.2" y="11.7" fill="#1D1D1B" font-family="'ClanPro-News'" font-size="4.8829" letter-spacing="14">	</tspan></text>
<g>
	<g>
		<linearGradient id="SVGID_7_" gradientUnits="userSpaceOnUse" x1="188.3628" y1="55.4137" x2="188.3628" y2="47.8323">
			<stop  offset="0" style="stop-color:#FFFFFF"/>
			<stop  offset="1" style="stop-color:#969695"/>
		</linearGradient>
		<ellipse fill="url(#SVGID_7_)" cx="188.4" cy="50.7" rx="4.9" ry="1.3"/>
	</g>
	<path fill="#DE0A14" d="M188.4,29.9c-4.2,0-7.6,3.4-7.6,7.6c0,4.5,7.6,13.2,7.6,13.2s7.6-8.4,7.6-13.2
		C196.1,33.3,192.6,29.9,188.4,29.9z"/>
	<circle fill="#FFFFFF" cx="188.4" cy="37.2" r="4.7"/>
	<text transform="matrix(1 0 0 1 185.9121 40.1438)" fill="#1D1D1B" font-family="'ClanPro-Black'" font-size="8.3062">4</text>
</g>
<circle fill="#FFFFFF" stroke="#F49824" stroke-width="1.2765" stroke-miterlimit="10" cx="205.8" cy="84.5" r="3.4"/>
</svg>
